<svg width="20" height="15" viewBox="0 0 20 15" fill="none" xmlns="http://www.w3.org/2000/svg">
<g clip-path="url(#clip0_270_68432)">
<g clip-path="url(#clip1_270_68432)">
<rect width="20" height="15" fill="white"/>
<path fill-rule="evenodd" clip-rule="evenodd" d="M0 0H20V15H0V0Z" fill="#FECA00"/>
<rect x="1.25" y="1.25" width="3.75" height="12.5" fill="#1F8A6E"/>
<rect x="5" y="1.25" width="3.75" height="12.5" fill="#F56800"/>
<rect x="8.75" y="1.25" width="10" height="12.5" fill="#B01D00"/>
<rect x="7.5" y="1.25" width="1.25" height="12.5" fill="#E8AA00"/>
<path fill-rule="evenodd" clip-rule="evenodd" d="M10.6877 3.85842C10.6877 3.85842 9.89165 3.85611 9.89165 5.24224V7.27485C9.89165 7.27485 9.5127 7.34241 9.5127 7.57782C9.5127 7.81323 9.59301 8.01921 9.74233 8.01921C9.89165 8.01921 10.041 8.70978 9.89165 8.70978C9.74233 8.70978 9.59301 9.00609 9.74233 9.00609C9.77806 9.00609 9.80523 9.00124 9.82591 8.99756C9.84765 8.99368 9.86221 8.99109 9.87195 8.99676C9.89165 9.00823 9.89165 9.05355 9.89165 9.19055C9.89165 9.45965 9.74233 9.56847 9.74233 9.56847C9.74233 9.56847 9.6017 9.52923 9.6017 9.68759C9.6017 9.84596 9.74233 9.88604 9.74233 9.88604C9.74233 9.88604 9.82284 9.92085 9.66777 9.99583C9.5127 10.0708 9.5127 10.1071 9.5127 10.1071H9.89165L10.0814 10.4543L10.2625 10.1071H10.6366C10.6366 10.1071 10.4482 9.98658 10.4262 9.96134C10.4041 9.93609 10.3774 9.8992 10.4262 9.85698C10.4404 9.84467 10.4612 9.83526 10.4836 9.82516C10.5379 9.80062 10.6014 9.77198 10.6014 9.68759C10.6014 9.56847 10.3626 9.56847 10.3626 9.56847C10.3626 9.56847 10.2169 9.30542 10.2625 9.19055C10.2753 9.15844 10.2826 9.12986 10.2888 9.10535C10.3049 9.04221 10.3141 9.00609 10.3924 9.00609C10.5011 9.00609 10.5636 8.86881 10.4262 8.70978C10.4262 8.70978 10.5836 8.87909 10.5374 9.0988C10.4911 9.3185 10.5855 9.418 10.6366 9.418C10.6877 9.418 10.769 9.34245 10.769 9.34245C10.769 9.34245 11.1937 9.72215 11.3803 9.72215C11.567 9.72215 11.8346 9.418 11.8346 9.418L12.2187 9.63376C12.2187 9.63376 12.4999 10.0277 12.4585 10.2985C12.417 10.5693 12.2567 10.7202 12.0681 10.6783C11.8795 10.6365 11.5727 10.7224 11.5493 10.8392C11.5458 10.8569 11.5405 10.8784 11.5348 10.9021L11.5348 10.9021C11.5025 11.0347 11.4541 11.2331 11.602 11.1842C11.7762 11.1265 11.8103 11.0822 11.8103 11.0822C11.8103 11.0822 11.7874 11.1842 11.9278 11.1842C12.0681 11.1842 12.1087 11.0822 12.1087 11.0822C12.1087 11.0822 12.2542 11.1842 12.3563 11.1842C12.4585 11.1842 12.5729 11.1056 12.5729 11.1056C12.5729 11.1056 12.6482 11.2223 12.8148 11.1842C12.9814 11.146 13.1073 10.7113 12.9861 10.6139C12.9861 10.6139 13.388 10.5556 13.4911 10.2063C13.4911 10.2063 13.1023 10.2005 13.1424 9.96134C13.1825 9.72215 13.3878 9.56847 13.3878 9.56847C13.3878 9.56847 13.9789 9.28231 14.2332 9.19055C14.4875 9.0988 14.9102 9.00609 15.015 9.00609C15.0576 9.00609 15.088 9.10559 15.1293 9.24047C15.1894 9.43702 15.2725 9.70867 15.4498 9.85698C15.7488 10.1071 15.5449 10.6783 15.5449 10.6783C15.5449 10.6783 14.8796 10.7454 14.8796 10.9255C14.8796 11.1056 14.8904 11.1842 15.015 11.1842C15.1396 11.1842 15.137 11.0822 15.137 11.0822C15.137 11.0822 15.211 11.1842 15.3304 11.1842C15.4498 11.1842 15.5449 11.0822 15.5449 11.0822C15.5449 11.0822 15.5767 11.1842 15.7331 11.1842C15.8895 11.1842 15.8884 11.0822 15.8884 11.0822C15.8884 11.0822 15.9166 11.1842 16.0545 11.1842C16.1924 11.1842 16.4754 11.0822 16.4754 11.0822C16.4754 11.0822 16.5197 11.1842 16.6629 11.1842C16.8061 11.1842 16.8095 11.0822 16.8095 11.0822C16.8095 11.0822 16.8859 11.1842 17.0099 11.1842C17.134 11.1842 17.2067 11.0822 17.2067 11.0822C17.2067 11.0822 17.385 11.1842 17.508 11.1842C17.631 11.1842 17.5868 11.0001 17.508 10.8392C17.488 10.7985 17.4649 10.7638 17.4439 10.732C17.3815 10.6382 17.3367 10.5707 17.4422 10.4543C17.4721 10.4213 17.5064 10.388 17.5407 10.3547L17.5407 10.3546C17.6685 10.2303 17.797 10.1053 17.7029 9.99583C17.675 9.96334 17.6422 9.94061 17.6093 9.91775C17.5016 9.8429 17.3919 9.7667 17.4422 9.34245C17.4724 9.08839 17.5297 8.88186 17.583 8.6901L17.583 8.69009C17.6458 8.46382 17.7029 8.25812 17.7029 8.01921C17.7029 7.57782 17.4422 7.0731 17.4422 7.0731C17.4422 7.0731 17.7932 6.82813 17.7932 6.32983C17.7932 5.83152 17.0099 5.77718 17.0099 5.77718C17.0099 5.77718 16.2319 5.97744 15.8884 5.87731C15.8109 5.85471 15.746 5.83846 15.692 5.82494C15.5068 5.77854 15.4498 5.76426 15.4498 5.63588C15.4498 5.47008 15.1998 5.77718 15.1998 5.77718C15.1998 5.77718 15.0038 5.69851 15.137 5.53575C15.2703 5.37298 15.3304 5.30917 15.3304 5.30917C15.3304 5.30917 15.213 5.17531 15.015 5.24224C14.8169 5.30917 14.7816 5.42008 14.7816 5.42008C14.7816 5.42008 14.5558 5.18893 14.6965 5.02109C14.8372 4.85325 15.015 5.02109 15.015 5.02109C15.015 5.02109 15.2172 5.1267 15.2335 4.98808C15.2498 4.84945 15.2335 4.7389 15.2335 4.7389C15.2335 4.7389 15.741 4.88446 15.5976 5.11085C15.4542 5.33725 15.5449 5.42008 15.5449 5.42008C15.5449 5.42008 15.8937 5.44155 15.9567 5.20093C15.9806 5.10993 15.9766 5.02167 15.9592 4.95232C16.0597 4.99966 16.1735 5.05575 16.1417 5.1488C16.0834 5.31977 15.9567 5.53575 15.9567 5.53575C15.9567 5.53575 16.3053 5.51538 16.4091 5.24224C16.513 4.9691 16.4754 5.30917 16.4754 5.30917C16.4754 5.30917 16.609 5.30441 16.8095 5.42008C17.0099 5.53575 16.8095 5.24224 16.8095 5.24224C16.8095 5.24224 17.2256 5.75825 17.6192 5.69706C18.0129 5.63588 17.991 5.30917 17.991 5.30917C17.991 5.30917 17.8978 5.1488 17.7029 5.1488C17.508 5.1488 17.6192 5.30917 17.6192 5.30917C17.6192 5.30917 17.8093 5.41741 17.508 5.30917C17.4207 5.27782 17.2905 5.17662 17.1289 5.05105L17.1289 5.05105C16.7326 4.74308 16.1476 4.2885 15.5449 4.35812C14.6965 4.45612 14.4004 4.83527 14.4004 4.83527V4.51957C14.4004 4.51957 14.2579 4.7389 14.1249 4.7389C13.992 4.7389 13.6229 4.51957 13.6229 4.51957L13.3878 4.7389C13.3878 4.7389 13.2987 4.51957 13.1424 4.51957C12.9861 4.51957 12.9861 4.7389 12.9861 4.7389C12.9861 4.7389 12.7895 4.64221 12.5729 4.64221C12.4842 4.64221 12.4087 4.60981 12.3505 4.58483C12.2667 4.54883 12.2187 4.52824 12.2187 4.64221C12.2187 4.66534 12.2193 4.68742 12.2198 4.70843V4.70843C12.2236 4.86274 12.2259 4.95902 12.0014 4.98808C11.7463 5.02109 11.5493 5.02109 11.5493 5.02109C11.5493 5.02109 11.3966 4.83527 11.2778 4.83527C11.159 4.83527 11.0214 4.97947 11.0214 5.11085C11.0214 5.24224 11.1753 5.61695 11.2778 5.69706C11.3048 5.71816 11.2998 5.71586 11.2778 5.70571C11.2162 5.67733 11.0214 5.58762 11.0214 5.77718C11.0214 5.90786 11.054 5.94054 11.0779 5.9644C11.1009 5.98752 11.1158 6.00237 11.0846 6.09012C11.0717 6.12663 11.0539 6.16887 11.0354 6.21294C10.9633 6.38409 10.8796 6.58303 11.0214 6.58303C11.098 6.58303 11.1705 6.56616 11.2221 6.55415C11.2907 6.53818 11.3224 6.5308 11.2778 6.58303C11.2601 6.60385 11.2362 6.6289 11.2122 6.65417L11.2121 6.65418C11.1304 6.74003 11.0462 6.82837 11.1918 6.76133C11.2684 6.72609 11.3331 6.67496 11.3864 6.6328C11.4643 6.57116 11.518 6.52868 11.5493 6.58303C11.5691 6.6174 11.5532 6.66334 11.5397 6.70271C11.5171 6.76819 11.5008 6.81552 11.6649 6.76133C11.7225 6.74233 11.7562 6.72752 11.7749 6.71687C11.7757 6.72753 11.7845 6.74236 11.8103 6.76133C11.8654 6.80178 11.8549 6.84009 11.8468 6.86938C11.8377 6.90252 11.8317 6.9241 11.9278 6.9241C12.0197 6.9241 12.1494 6.85286 12.2263 6.81063C12.3007 6.76975 12.3256 6.75607 12.2187 6.8606C12.1514 6.92648 12.0539 6.9704 11.9457 7.01914C11.705 7.12763 11.4111 7.26004 11.2778 7.7117C11.0979 8.32137 11.1785 8.44701 11.1905 8.46138L10.6366 7.855C10.6366 7.855 10.769 7.75149 10.769 7.57782C10.769 7.40415 10.4262 7.27485 10.4262 7.27485C10.4262 7.27485 10.4381 5.11375 10.5374 4.64221C10.6366 4.17067 10.6877 3.85842 10.6877 3.85842ZM11.7922 6.69646C11.7859 6.69647 11.7739 6.70329 11.7749 6.71687C11.7989 6.70324 11.7984 6.69645 11.7922 6.69646ZM15.9592 4.95232L15.9519 4.94886C15.8708 4.91072 15.801 4.87791 15.8278 4.83527C15.8655 4.77535 15.9306 4.83829 15.9592 4.95232ZM16.3257 9.62851C16.3257 9.62851 16.0632 9.88594 16.2299 9.94252C16.2804 9.95968 16.3419 9.96924 16.3991 9.97814C16.5304 9.99857 16.6388 10.0154 16.5393 10.1126C16.3965 10.2522 16.2757 10.4406 16.2757 10.6123C16.2757 10.7839 16.2797 10.9288 16.3257 10.8564C16.3509 10.8166 16.4546 10.775 16.5662 10.7301C16.658 10.6933 16.7551 10.6542 16.8186 10.6123C16.9385 10.533 16.9368 10.4473 16.9337 10.2932V10.2932C16.9332 10.2666 16.9326 10.2379 16.9326 10.2068C16.9326 9.99626 16.3257 9.62851 16.3257 9.62851ZM14.2893 6.181C14.3505 6.13237 14.3544 5.53227 14.3544 5.53227C14.3544 5.53227 14.569 5.60371 14.569 5.69746C14.569 5.75584 14.5528 5.78923 14.5282 5.83963C14.5134 5.87016 14.4955 5.90693 14.4764 5.95927C14.4292 6.08819 14.5575 6.16896 14.6767 6.24398C14.6858 6.2497 14.6948 6.25539 14.7037 6.26106C14.7845 6.31257 14.8072 6.20081 14.8247 6.11454C14.8345 6.06671 14.8426 6.02672 14.8581 6.02672C14.9017 6.02672 15.227 6.10045 15.4717 6.22484C15.6853 6.33337 15.8949 6.28009 16.3749 6.15805C16.445 6.14022 16.5209 6.12092 16.6035 6.10045C17.2509 5.93983 17.3359 6.181 17.4022 6.37086C17.4686 6.56073 16.966 6.82382 16.6035 6.87151C16.4442 6.89246 16.3062 6.88579 16.1792 6.87966C16.0173 6.87184 15.8733 6.86488 15.7259 6.91727C15.495 6.99938 14.7727 6.9912 14.4908 6.98801C14.4519 6.98757 14.4213 6.98723 14.4017 6.98723C14.2722 6.98723 14.2478 6.94637 14.1986 6.8644C14.1861 6.84357 14.1721 6.82008 14.1543 6.79393C14.0664 6.6649 14.173 6.58053 14.2421 6.58053C14.3112 6.58053 14.2893 6.4295 14.2421 6.37086C14.1949 6.31222 14.2281 6.22962 14.2893 6.181Z" fill="#FECA00"/>
<path fill-rule="evenodd" clip-rule="evenodd" d="M8.85699 1.32645V1.5521C8.85699 1.57989 8.845 1.61778 8.83156 1.66027C8.78895 1.79492 8.73178 1.97563 8.99572 2.02642C9.34294 2.09323 9.59871 2.24506 9.67648 2.3884C9.72632 2.48026 9.71228 2.32719 9.69577 2.14715C9.68651 2.04626 9.67648 1.93689 9.67648 1.85742C9.67648 1.63615 9.42862 1.20496 9.25298 1.32645C9.07735 1.44795 8.85699 1.32645 8.85699 1.32645ZM8.85699 13.4421V13.6677C8.85699 13.6677 9.07735 13.5462 9.25298 13.6677C9.42862 13.7892 9.67648 13.358 9.67648 13.1367C9.67648 13.0573 9.68651 12.9479 9.69577 12.847C9.71228 12.667 9.72632 12.5139 9.67648 12.6058C9.59871 12.7491 9.34294 12.9009 8.99572 12.9678C8.73178 13.0185 8.78896 13.1992 8.83156 13.3339C8.845 13.3764 8.85699 13.4143 8.85699 13.4421ZM18.6473 13.4421V13.6677C18.6473 13.6677 18.4269 13.5462 18.2513 13.6677C18.0756 13.7892 17.8278 13.358 17.8278 13.1367C17.8278 13.0573 17.8177 12.9479 17.8085 12.847C17.792 12.667 17.7779 12.5139 17.8278 12.6058C17.9055 12.7491 18.1613 12.9009 18.5085 12.9678C18.7725 13.0185 18.7153 13.1992 18.6727 13.3339C18.6593 13.3764 18.6473 13.4143 18.6473 13.4421ZM18.6473 1.5521V1.32645C18.6473 1.32645 18.4269 1.44795 18.2513 1.32645C18.0756 1.20496 17.8278 1.63615 17.8278 1.85742C17.8278 1.93689 17.8177 2.04626 17.8085 2.14715C17.792 2.32719 17.7779 2.48026 17.8278 2.3884C17.9055 2.24506 18.1613 2.09323 18.5085 2.02642C18.7725 1.97563 18.7153 1.79492 18.6727 1.66027C18.6593 1.61778 18.6473 1.57989 18.6473 1.5521Z" fill="#FECA00"/>
</g>
<rect width="20" height="15" fill="url(#paint0_linear_270_68432)" style="mix-blend-mode:overlay"/>
</g>
<rect x="0.5" y="0.5" width="19" height="14" rx="1" stroke="black" stroke-opacity="0.1" style="mix-blend-mode:multiply"/>
<defs>
<linearGradient id="paint0_linear_270_68432" x1="20" y1="7.45456e-07" x2="1.00613e-06" y2="15" gradientUnits="userSpaceOnUse">
<stop stop-color="white" stop-opacity="0.3"/>
<stop offset="0.262741" stop-opacity="0.27"/>
<stop offset="0.369956" stop-color="white" stop-opacity="0.26"/>
<stop offset="0.487001" stop-opacity="0.55"/>
<stop offset="0.594445" stop-opacity="0.24"/>
<stop offset="0.736408" stop-color="white" stop-opacity="0.3"/>
<stop offset="0.901459" stop-color="#272727" stop-opacity="0.22"/>
<stop offset="1" stop-opacity="0.2"/>
</linearGradient>
<clipPath id="clip0_270_68432">
<rect width="20" height="15" rx="1.5" fill="white"/>
</clipPath>
<clipPath id="clip1_270_68432">
<rect width="20" height="15" fill="white"/>
</clipPath>
</defs>
</svg>
